<?xml version="1.0" encoding="utf-8"?>
<!-- Generator: Adobe Illustrator 16.0.0, SVG Export Plug-In . SVG Version: 6.00 Build 0)  -->
<!DOCTYPE svg PUBLIC "-//W3C//DTD SVG 1.1//EN" "http://www.w3.org/Graphics/SVG/1.1/DTD/svg11.dtd">
<svg version="1.1" id="Layer_1" xmlns="http://www.w3.org/2000/svg" xmlns:xlink="http://www.w3.org/1999/xlink" x="0px" y="0px"
	 width="277px" height="200.5px" viewBox="0 0 277 200.5" enable-background="new 0 0 277 200.5" xml:space="preserve">
<g>
	<g>
		<path fill="#009444" d="M13.298,179.3v11.199h-1.702V179.3H9.962v-1.545h4.97v1.545H13.298z"/>
		<path fill="#009444" d="M19.705,190.499v-5.784h-2.094v5.784h-1.702v-12.744h1.702v5.414h2.094v-5.414h1.707v12.744H19.705z"/>
		<path fill="#009444" d="M23.01,190.499v-12.744h4.224v1.545h-2.522v3.869h2.235v1.546h-2.235v4.239h2.522v1.545H23.01z"/>
		<path fill="#009444" d="M35.237,183.169v1.546h-2.234v5.784h-1.708v-12.744h4.229v1.545h-2.521v3.869H35.237z"/>
		<path fill="#009444" d="M38.292,190.499h-1.708v-10.562c0-1.456,0.684-2.182,2.042-2.182h1.279c1.363,0,2.042,0.727,2.042,2.182
			v10.562h-1.702v-4.667h-1.952V190.499z M40.244,184.287v-4.245c0-0.49-0.25-0.742-0.746-0.742h-0.465
			c-0.496,0-0.741,0.251-0.741,0.742v4.245H40.244z"/>
		<path fill="#009444" d="M46.723,181.18v-1.117c0-0.506-0.25-0.763-0.746-0.763H45.71c-0.485,0-0.731,0.257-0.731,0.763v2.109
			c0,0.239,0.047,0.396,0.146,0.48c0.094,0.083,0.245,0.192,0.459,0.323l1.613,0.867c0.355,0.204,0.606,0.361,0.757,0.47
			c0.146,0.114,0.261,0.25,0.345,0.407c0.083,0.162,0.125,0.465,0.125,0.919v2.715c0,1.431-0.684,2.145-2.062,2.145h-1.044
			c-1.363,0-2.042-0.783-2.042-2.344v-0.637h1.702v0.689c0,0.501,0.256,0.747,0.763,0.747h0.303c0.449,0,0.678-0.246,0.678-0.747
			v-2.161c0-0.24-0.052-0.397-0.146-0.48c-0.094-0.084-0.251-0.188-0.46-0.319l-1.613-0.908c-0.36-0.188-0.616-0.35-0.772-0.475
			c-0.162-0.131-0.277-0.303-0.35-0.512c-0.068-0.203-0.105-0.47-0.105-0.803v-2.611c0-1.456,0.679-2.182,2.042-2.182h1.064
			c1.358,0,2.042,0.727,2.042,2.182v1.243H46.723z"/>
		<path fill="#009444" d="M52.56,179.3v11.199h-1.702V179.3h-1.635v-1.545h4.971v1.545H52.56z"/>
		<path fill="#009444" d="M60.725,179.3v11.199h-1.707V179.3h-1.634v-1.545h4.97v1.545H60.725z"/>
		<path fill="#009444" d="M63.331,177.755h3.336c1.305,0,1.953,0.727,1.953,2.182v3.143c0,1.112-0.334,1.816-1.008,2.11l1.186,5.309
			h-1.613l-1.118-5.147h-1.028v5.147h-1.708V177.755z M65.038,183.895h1.117c0.506,0,0.762-0.308,0.762-0.919v-2.75
			c0-0.617-0.256-0.925-0.762-0.925h-1.117V183.895z"/>
		<path fill="#009444" d="M71.658,190.499h-1.708v-10.562c0-1.456,0.684-2.182,2.042-2.182h1.279c1.363,0,2.041,0.727,2.041,2.182
			v10.562h-1.702v-4.667h-1.953V190.499z M73.611,184.287v-4.245c0-0.49-0.251-0.742-0.747-0.742h-0.465
			c-0.496,0-0.741,0.251-0.741,0.742v4.245H73.611z"/>
		<path fill="#009444" d="M81.917,187.518v0.814c0,1.447-0.684,2.167-2.041,2.167h-1.102c-1.362,0-2.041-0.72-2.041-2.167v-8.41
			c0-1.446,0.679-2.167,2.041-2.167h1.102c1.357,0,2.041,0.721,2.041,2.167v1.435H80.21v-1.315c0-0.49-0.25-0.742-0.762-0.742
			h-0.334c-0.455,0-0.679,0.251-0.679,0.742v8.166c0,0.501,0.224,0.747,0.679,0.747h0.423c0.449,0,0.673-0.246,0.673-0.747v-0.689
			H81.917z"/>
		<path fill="#009444" d="M84.951,190.499h-1.702v-12.744h1.702V190.499z M88.872,190.499h-1.702l-2.13-6.228v-0.11l1.775-6.406
			h1.561l-1.791,6.338L88.872,190.499z"/>
		<path fill="#009444" d="M92.688,190.499v-12.744h1.702v12.744H92.688z"/>
		<path fill="#009444" d="M99.522,183.916v-6.161h1.702v12.744h-1.702v-2.537l-1.828-5.806v8.343h-1.707v-12.744h1.707
			L99.522,183.916z"/>
		<path fill="#009444" d="M105.537,179.3v11.199h-1.702V179.3h-1.634v-1.545h4.97v1.545H105.537z"/>
		<path fill="#009444" d="M108.147,190.499v-12.744h4.224v1.545h-2.521v3.869h2.24v1.546h-2.24v4.239h2.521v1.545H108.147z"/>
		<path fill="#009444" d="M113.598,177.755h3.336c1.3,0,1.953,0.727,1.953,2.182v3.143c0,1.112-0.339,1.816-1.013,2.11l1.19,5.309
			h-1.613l-1.123-5.147H115.3v5.147h-1.702V177.755z M115.3,183.895h1.117c0.512,0,0.762-0.308,0.762-0.919v-2.75
			c0-0.617-0.25-0.925-0.762-0.925H115.3V183.895z"/>
		<path fill="#009444" d="M121.92,190.499h-1.702v-10.562c0-1.456,0.679-2.182,2.042-2.182h1.279c1.357,0,2.042,0.727,2.042,2.182
			v10.562h-1.708v-4.667h-1.953V190.499z M123.873,184.287v-4.245c0-0.49-0.25-0.742-0.747-0.742h-0.459
			c-0.496,0-0.747,0.251-0.747,0.742v4.245H123.873z"/>
		<path fill="#009444" d="M132.179,187.518v0.814c0,1.447-0.679,2.167-2.042,2.167h-1.102c-1.358,0-2.042-0.72-2.042-2.167v-8.41
			c0-1.446,0.684-2.167,2.042-2.167h1.102c1.363,0,2.042,0.721,2.042,2.167v1.435h-1.702v-1.315c0-0.49-0.256-0.742-0.762-0.742
			h-0.339c-0.449,0-0.673,0.251-0.673,0.742v8.166c0,0.501,0.224,0.747,0.673,0.747h0.428c0.449,0,0.673-0.246,0.673-0.747v-0.689
			H132.179z"/>
		<path fill="#009444" d="M136.226,179.3v11.199h-1.703V179.3h-1.634v-1.545h4.97v1.545H136.226z"/>
		<path fill="#009444" d="M138.836,190.499v-12.744h1.702v12.744H138.836z"/>
		<path fill="#009444" d="M147.659,177.755l-2.062,12.744h-2.02l-2.062-12.744h1.686l1.384,9.727l1.388-9.727H147.659z"/>
		<path fill="#009444" d="M148.458,190.499v-12.744h4.224v1.545h-2.522v3.869h2.235v1.546h-2.235v4.239h2.522v1.545H148.458z"/>
		<path fill="#009444" d="M160.702,183.952c0.934,0.256,1.403,0.741,1.403,1.452v3.194c0,1.269-0.647,1.9-1.936,1.9h-3.426v-12.744
			h2.914c1.515,0,2.271,0.768,2.271,2.308v2.448c0,0.736-0.407,1.185-1.226,1.353V183.952z M158.446,183.132h0.799
			c0.652,0,0.982-0.308,0.982-0.924v-1.983c0-0.617-0.257-0.925-0.769-0.925h-1.012V183.132z M158.446,188.954h1.278
			c0.449,0,0.674-0.183,0.674-0.548v-2.824c0-0.6-0.334-0.903-1.008-0.903h-0.945V188.954z"/>
		<path fill="#009444" d="M167.571,190.499h-4.045v-12.744h1.702v11.199h2.344V190.499z"/>
		<path fill="#009444" d="M174.082,177.755v10.333c0,1.608-0.684,2.411-2.057,2.411h-1.436c-1.362,0-2.042-0.809-2.042-2.433
			v-10.311h1.702v10.369c0,0.554,0.251,0.83,0.747,0.83h0.694c0.459,0,0.689-0.276,0.689-0.83v-10.369H174.082z"/>
		<path fill="#009444" d="M175.679,190.499v-12.744h4.225v1.545h-2.517v3.869h2.234v1.546h-2.234v4.239h2.517v1.545H175.679z"/>
		<path fill="#009444" d="M181.13,177.755h3.107c1.373,0,2.057,0.727,2.057,2.182v3.78c0,1.446-0.679,2.167-2.042,2.167h-1.42v4.615
			h-1.702V177.755z M182.833,184.339h1.086c0.449,0,0.673-0.246,0.673-0.742v-3.556c0-0.49-0.255-0.742-0.762-0.742h-0.997V184.339z
			"/>
		<path fill="#009444" d="M187.646,177.755h3.335c1.3,0,1.954,0.727,1.954,2.182v3.143c0,1.112-0.34,1.816-1.013,2.11l1.19,5.309
			h-1.619l-1.118-5.147h-1.028v5.147h-1.702V177.755z M189.348,183.895h1.117c0.512,0,0.762-0.308,0.762-0.919v-2.75
			c0-0.617-0.25-0.925-0.762-0.925h-1.117V183.895z"/>
		<path fill="#009444" d="M194.355,190.499v-12.744h1.701v12.744H194.355z"/>
		<path fill="#009444" d="M201.189,183.916v-6.161h1.702v12.744h-1.702v-2.537l-1.833-5.806v8.343h-1.702v-12.744h1.702
			L201.189,183.916z"/>
		<path fill="#009444" d="M207.204,179.3v11.199h-1.708V179.3h-1.629v-1.545h4.971v1.545H207.204z"/>
		<path fill="#009444" d="M215.369,179.3v11.199h-1.707V179.3h-1.634v-1.545h4.971v1.545H215.369z"/>
		<path fill="#009444" d="M219.948,190.499c-1.374,0-2.062-0.72-2.062-2.167v-8.395c0-1.456,0.684-2.182,2.042-2.182h1.634
			c1.362,0,2.042,0.727,2.042,2.182v8.395c0,1.447-0.689,2.167-2.062,2.167H219.948z M220.355,188.954h0.867
			c0.454,0,0.678-0.246,0.678-0.747v-8.166c0-0.49-0.255-0.742-0.762-0.742h-0.804c-0.496,0-0.741,0.251-0.741,0.742v8.166
			C219.593,188.708,219.849,188.954,220.355,188.954z"/>
		<path fill="#009444" d="M236.858,177.755l-1.879,12.744h-1.848l-1.044-7.382l-1.028,7.382h-1.848l-1.88-12.744h1.687l1.206,9.55
			l1.207-9.55h1.331l1.207,9.55l1.206-9.55H236.858z"/>
		<path fill="#009444" d="M237.658,190.499v-12.744h4.229v1.545h-2.522v3.869h2.235v1.546h-2.235v4.239h2.522v1.545H237.658z"/>
		<path fill="#009444" d="M244.722,190.499h-1.702v-10.562c0-1.456,0.678-2.182,2.042-2.182h1.279c1.357,0,2.042,0.727,2.042,2.182
			v10.562h-1.707v-4.667h-1.953V190.499z M246.674,184.287v-4.245c0-0.49-0.246-0.742-0.747-0.742h-0.46
			c-0.496,0-0.746,0.251-0.746,0.742v4.245H246.674z"/>
		<path fill="#009444" d="M253.937,190.499h-4.046v-12.744h1.703v11.199h2.344V190.499z"/>
		<path fill="#009444" d="M256.74,179.3v11.199h-1.708V179.3h-1.629v-1.545h4.971v1.545H256.74z"/>
		<path fill="#009444" d="M263.146,190.499v-5.784h-2.094v5.784h-1.702v-12.744h1.702v5.414h2.094v-5.414h1.702v12.744H263.146z"/>
	</g>
	<g>
		<path fill="#009444" d="M78.717,49.185h-0.392c-0.423,0-0.637,0.208-0.637,0.631v3.608h1.666v-3.608
			C79.354,49.393,79.14,49.185,78.717,49.185z"/>
		<path fill="#009444" d="M44.87,49.185h-0.392c-0.428,0-0.637,0.208-0.637,0.631v3.608h1.661v-3.608
			C45.501,49.393,45.292,49.185,44.87,49.185z"/>
		<rect x="43.841" y="54.74" fill="#009444" width="1.661" height="3.717"/>
		<rect x="77.688" y="54.74" fill="#009444" width="1.666" height="3.717"/>
		<polygon fill="#009444" points="31.311,58.457 33.081,58.457 32.183,54.332 31.311,54.332 		"/>
		<path fill="#009444" d="M32.908,52.307v-2.339c0-0.522-0.214-0.783-0.647-0.783h-0.95v3.91h0.95
			C32.694,53.095,32.908,52.829,32.908,52.307z"/>
		<polygon fill="#009444" points="172.881,51.612 171.796,56.75 170.678,56.75 169.592,51.612 169.733,58.457 172.735,58.457 		"/>
		<polygon fill="#009444" points="106.315,58.457 108.09,58.457 107.191,54.332 106.315,54.332 		"/>
		<path fill="#009444" d="M114.47,57.397c0.381,0,0.574-0.214,0.574-0.637v-6.944c0-0.423-0.219-0.631-0.653-0.631h-0.678
			c-0.423,0-0.632,0.208-0.632,0.631v6.944c0,0.423,0.214,0.637,0.647,0.637H114.47z"/>
		<polygon fill="#009444" points="174.181,54.572 174.181,58.457 257.7,58.457 249.545,54.572 		"/>
		<path fill="#009444" d="M101.136,52.839v-3.023c0-0.423-0.214-0.631-0.647-0.631h-0.846v4.287h0.918
			C100.942,53.471,101.136,53.257,101.136,52.839z"/>
		<path fill="#009444" d="M107.917,52.307v-2.339c0-0.522-0.219-0.783-0.652-0.783h-0.95v3.91h0.95
			C107.698,53.095,107.917,52.829,107.917,52.307z"/>
		<path fill="#009444" d="M111.63,56.87v-7.143c0-1.237,0.58-1.858,1.738-1.858h1.389c1.154,0,1.739,0.621,1.739,1.858v7.143
			c0,0.773-0.235,1.306-0.705,1.587h3.117V47.869h3.592v1.315h-2.14v3.289h1.9v1.316h-1.9v4.667h4.255V47.869h1.452v10.588h3.352
			v-9.272h-1.389v-1.315h4.224v1.315h-1.388v9.272h7.481c-0.485-0.303-0.731-0.877-0.731-1.739V56.17h1.446v0.59
			c0,0.423,0.22,0.637,0.653,0.637h0.256c0.381,0,0.574-0.214,0.574-0.637v-1.837c0-0.204-0.041-0.34-0.12-0.413
			c-0.083-0.067-0.214-0.156-0.391-0.271l-1.378-0.768c-0.303-0.162-0.517-0.298-0.653-0.408s-0.235-0.255-0.297-0.433
			c-0.058-0.172-0.089-0.402-0.089-0.684v-2.219c0-1.237,0.58-1.858,1.739-1.858h0.903c1.154,0,1.734,0.621,1.734,1.858v1.055
			h-1.447v-0.95c0-0.434-0.208-0.647-0.637-0.647h-0.224c-0.412,0-0.622,0.214-0.622,0.647v1.796c0,0.204,0.042,0.339,0.126,0.407
			c0.079,0.073,0.209,0.162,0.392,0.271l1.373,0.742c0.303,0.172,0.517,0.302,0.643,0.396c0.125,0.099,0.224,0.214,0.292,0.35
			c0.073,0.136,0.104,0.397,0.104,0.778v2.308c0,0.767-0.23,1.295-0.695,1.577h3.989v-3.733l-1.781-6.854h1.436l1.086,4.709h0.042
			l0.982-4.709h1.436l-1.75,6.854v3.733h4.14c-0.485-0.303-0.73-0.877-0.73-1.739V56.17h1.451v0.59c0,0.423,0.214,0.637,0.648,0.637
			h0.255c0.386,0,0.574-0.214,0.574-0.637v-1.837c0-0.204-0.042-0.34-0.12-0.413c-0.079-0.067-0.214-0.156-0.392-0.271l-1.378-0.768
			c-0.298-0.162-0.518-0.298-0.653-0.408c-0.135-0.11-0.235-0.255-0.297-0.433c-0.058-0.172-0.089-0.402-0.089-0.684v-2.219
			c0-1.237,0.579-1.858,1.738-1.858h0.903c1.159,0,1.738,0.621,1.738,1.858v1.055h-1.451v-0.95c0-0.434-0.209-0.647-0.637-0.647
			h-0.224c-0.413,0-0.616,0.214-0.616,0.647v1.796c0,0.204,0.037,0.339,0.121,0.407c0.078,0.073,0.208,0.162,0.391,0.271
			l1.373,0.742c0.303,0.172,0.517,0.302,0.642,0.396c0.126,0.099,0.225,0.214,0.292,0.35c0.074,0.136,0.11,0.397,0.11,0.778v2.308
			c0,0.767-0.235,1.295-0.694,1.577h3.895v-9.272h-1.389v-1.315h4.224v1.315h-1.389v9.272h3.352V47.869h3.598v1.315h-2.145v3.289
			h1.9v1.316h-1.9v3.607h2.145v1.06h2.172V47.869h1.598l1.347,6.37l1.341-6.37h1.603v5.498h72.827l-73.229-34.876l-22,13.757
			l-35.951-8.891V7.5H96.849v11.157l-32.976-8.155L14.949,58.457h14.911V47.869h2.84c1.106,0,1.66,0.621,1.66,1.858V52.4
			c0,0.945-0.287,1.541-0.861,1.796l0.955,4.261h2.245V47.869h3.592v1.315H38.15v3.289h1.901v1.316H38.15v3.607h2.141v1.06h2.099
			v-8.73c0-1.237,0.58-1.858,1.739-1.858h1.086c1.159,0,1.738,0.621,1.738,1.858v8.73h2.412V47.869h1.452v9.528h1.994v1.06h5.508
			V47.869h3.592v1.315H59.77v3.289h1.9v1.316h-1.9v3.607h2.141v1.06h2.756c-0.485-0.303-0.73-0.877-0.73-1.739V56.17h1.452v0.59
			c0,0.423,0.214,0.637,0.647,0.637h0.256c0.381,0,0.574-0.214,0.574-0.637v-1.837c0-0.204-0.042-0.34-0.12-0.413
			c-0.083-0.067-0.214-0.156-0.392-0.271l-1.378-0.768c-0.297-0.162-0.517-0.298-0.653-0.408c-0.136-0.11-0.235-0.255-0.297-0.433
			c-0.058-0.172-0.089-0.402-0.089-0.684v-2.219c0-1.237,0.58-1.858,1.738-1.858h0.903c1.159,0,1.739,0.621,1.739,1.858v1.055
			h-1.452v-0.95c0-0.434-0.208-0.647-0.637-0.647h-0.225c-0.413,0-0.616,0.214-0.616,0.647v1.796c0,0.204,0.036,0.339,0.12,0.407
			c0.078,0.073,0.209,0.162,0.392,0.271l1.373,0.742c0.303,0.172,0.517,0.302,0.642,0.396c0.125,0.099,0.225,0.214,0.292,0.35
			c0.073,0.136,0.11,0.397,0.11,0.778v2.308c0,0.767-0.235,1.295-0.695,1.577h3.895v-9.272h-1.389v-1.315h4.224v1.315h-1.389v9.272
			h3.279v-8.73c0-1.237,0.58-1.858,1.733-1.858h1.085c1.16,0,1.739,0.621,1.739,1.858v8.73h3.279v-9.272H82.69v-1.315h4.224v1.315
			h-1.389v9.272h3.352V47.869h3.592v1.315h-2.141v3.289h1.9v1.316h-1.9v3.607h2.141v1.06h5.722V47.869h2.643
			c1.169,0,1.754,0.621,1.754,1.858v3.217c0,1.227-0.58,1.843-1.738,1.843h-1.206v3.67h5.226V47.869h2.835
			c1.107,0,1.661,0.621,1.661,1.858V52.4c0,0.945-0.282,1.541-0.856,1.796l0.95,4.261h0.407h2.464
			C111.865,58.175,111.63,57.643,111.63,56.87z"/>
	</g>
	<g>
		<path fill="#39B54A" d="M10.161,169.579v-1.206h255.805v1.206H10.161z"/>
	</g>
	<g>
		<path fill="#006838" d="M69.794,119.281c0-0.486-0.172-1.285-0.512-2.402c-0.34-1.117-0.903-2.062-1.676-2.84
			c-1.264-1.461-2.866-2.24-4.814-2.339c1.07,0,2.068-0.24,2.992-0.726c0.924-0.485,1.53-0.924,1.822-1.315
			c0.292-0.386,0.73-0.945,1.31-1.675c0.585-0.731,0.877-1.337,0.877-1.823l-0.146-33.68c0-1.749-0.485-3.253-1.451-4.516
			c-1.165-1.457-2.866-2.135-5.096-2.041h-52.94v12.979l6.422,0.141l0.141,66.458h-6.563v13.151h26.246v-13.125h-6.562v-26.246
			h26.099v26.246H49.38v13.125h26.972v-13.125h-6.558V119.281z M55.943,106.16H29.844V79.043h26.246L55.943,106.16z"/>
		<polygon fill="#006838" points="82.225,79.8 89.232,79.8 89.232,145.51 82.225,145.51 82.225,158.652 141.362,158.652 
			141.362,132.364 128.216,132.364 128.216,145.51 101.934,145.51 101.934,119.223 122.818,119.223 122.818,106.083 
			101.934,106.083 101.934,79.8 128.216,79.8 128.216,92.946 141.362,92.946 141.362,66.058 82.225,66.058 		"/>
		<path fill="#006838" d="M206.368,72.626c0-1.843-0.637-3.399-1.9-4.663c-1.264-1.263-2.819-1.895-4.667-1.895h-52.486v13.12h6.563
			v66.337h-6.563v13.125h26.246v-13.125h-6.563v-26.971h32.804c2.234,0.286,3.989-0.34,5.252-1.896
			c0.971-1.264,1.41-2.772,1.315-4.521V72.626z M193.243,105.435h-26.246V79.189h26.246V105.435z"/>
		<path fill="#006838" d="M264.858,67.426c-0.789-0.789-1.765-1.227-2.944-1.326c-1.175-0.095-2.062-0.147-2.647-0.147h-13.809
			v-4.244H233.82v4.244h-14.284c-1.963-0.093-3.577,0.492-4.851,1.77c-1.278,1.269-1.863,2.893-1.77,4.851v39.731
			c0,0.491,0.1,1.269,0.298,2.349c0.194,1.081,0.637,1.963,1.321,2.647c0.689,0.689,1.598,1.133,2.725,1.327
			c1.122,0.198,1.938,0.298,2.428,0.298h14.133v26.479h-7.951v-6.62h-12.954v13.292c0,0.679,0.125,1.487,0.376,2.412
			c0.235,0.924,0.756,1.723,1.541,2.407c0.684,0.585,1.472,1.024,2.349,1.315c0.887,0.293,1.671,0.439,2.355,0.439h14.284v5.017
			h11.638v-5.017h13.809c0.684,0,1.566-0.126,2.647-0.371c1.075-0.246,1.962-0.757,2.647-1.545c0.496-0.684,0.83-1.493,1.034-2.428
			c0.192-0.929,0.292-1.692,0.292-2.281v-39.721c0-0.887-0.025-1.697-0.073-2.433c-0.052-0.731-0.319-1.441-0.814-2.13
			c-0.684-0.982-1.519-1.566-2.496-1.765c-0.981-0.199-2.057-0.298-3.236-0.298h-13.809V79.194h7.184v8.098h13.245V72.574
			c0-0.491,0.021-1.269,0.074-2.35C266.007,69.144,265.642,68.215,264.858,67.426z M252.642,118.926v26.479h-7.184v-26.479H252.642z
			 M233.82,105.68h-7.659V79.194h7.659V105.68z"/>
	</g>
</g>
</svg>
